inDegrees=no
num_controls=7
num_derivatives=13
num_iterations=176
num_multipliers=7
num_parameters=0
num_slacks=7
num_states=26
objective=5.154456
objective_accelerations=0.538697
objective_balance=0.032784
objective_effort=0.311128
objective_height=4.207711
objective_ligament=0.064137
solver_duration=1940.856740
status=Solve_Succeeded
success=true
DataType=double
version=3
OpenSimVersion=4.4-2022-07-23-0e9fedc
endheader
time	/jointset/ground_pelvis/pelvis_tilt/value	/jointset/ground_pelvis/pelvis_tx/value	/jointset/ground_pelvis/pelvis_ty/value	/jointset/hip_l/hip_flexion_l/value	/jointset/hip_l/hip_adduction_l/value	/jointset/hip_l/hip_rotation_l/value	/jointset/back/lumbar_extension/value	/jointset/patellofemoral_l/patellar_flexion_l/value	/jointset/knee_l/knee_flexion_l/value	/jointset/knee_l/knee_adduction_l/value	/jointset/knee_l/knee_rotation_l/value	/jointset/ankle_l/ankle_angle_l/value	/jointset/subtalar_l/subtalar_angle_l/value	/jointset/ground_pelvis/pelvis_tilt/speed	/jointset/ground_pelvis/pelvis_tx/speed	/jointset/ground_pelvis/pelvis_ty/speed	/jointset/hip_l/hip_flexion_l/speed	/jointset/hip_l/hip_adduction_l/speed	/jointset/hip_l/hip_rotation_l/speed	/jointset/back/lumbar_extension/speed	/jointset/patellofemoral_l/patellar_flexion_l/speed	/jointset/knee_l/knee_flexion_l/speed	/jointset/knee_l/knee_adduction_l/speed	/jointset/knee_l/knee_rotation_l/speed	/jointset/ankle_l/ankle_angle_l/speed	/jointset/subtalar_l/subtalar_angle_l/speed	/forceset/tau_hip_flexion_l	/forceset/tau_hip_adduction_l	/forceset/tau_hip_rotation_l	/forceset/tau_knee_flexion_l	/forceset/tau_ankle_angle_l	/forceset/tau_subtalar_angle_l	/forceset/tau_lumbar_extension	lambda_cid13_p0	lambda_cid13_p1	lambda_cid13_p2	lambda_cid13_p3	lambda_cid13_p4	lambda_cid13_p5	lambda_cid14_p0	/jointset/ground_pelvis/pelvis_tilt/accel	/jointset/ground_pelvis/pelvis_tx/accel	/jointset/ground_pelvis/pelvis_ty/accel	/jointset/hip_l/hip_flexion_l/accel	/jointset/hip_l/hip_adduction_l/accel	/jointset/hip_l/hip_rotation_l/accel	/jointset/back/lumbar_extension/accel	/jointset/patellofemoral_l/patellar_flexion_l/accel	/jointset/knee_l/knee_flexion_l/accel	/jointset/knee_l/knee_adduction_l/accel	/jointset/knee_l/knee_rotation_l/accel	/jointset/ankle_l/ankle_angle_l/accel	/jointset/subtalar_l/subtalar_angle_l/accel	gamma_cid13_p0	gamma_cid13_p1	gamma_cid13_p2	gamma_cid13_p3	gamma_cid13_p4	gamma_cid13_p5	gamma_cid14_p0
0.5	-0.4275474815074513	-0.09268550718015181	0.7744779066279441	1.115760634372126	-0.4234933990835665	-0.308585055271961	-0.2550547571078874	0.5796909903735242	0.5796909903735404	-0.1737548347465513	-0.1666243730536553	-0.08066332663193812	-0.111946460384719	-1.026017108231947	-0.3661354637679881	-0.451982788210455	2.490216438820854	-0.2188679719770422	0.556812103145057	-0.1103359828294921	1.375042207300664	1.375042207300602	0.004577606413642274	-0.05581340906747466	-0.01772861979649315	-0.2387917500162387	-0.2078676043178523	0.002032006889566767	-0.005274769127979401	-0.1685800830581182	0.1264555545057648	0.06169234123404287	0.1919366328343767	6.326543504551032	-30.46879434171328	7.455005379231186	-8.976608736401555	-526.8067713369555	-71.72352197017979	-35.57063316212527	0.7969290631331893	0.6620740221053609	-0.2842053649527844	-1.538502855780039	0.4936220456062846	-0.06782279308963814	1.100238147602506	-0.8914549774538265	-0.8914549774538267	0.04483420058676359	0.2096383791290557	0.05294881224286617	0.5584845198223214	4.368512331878005e-08	-5.472431206500925e-07	-1.124734761532046e-07	-2.04883788822218e-07	-1.171143556752546e-07	1.775711019217966e-07	-8.212350057466846e-08
0.51	-0.4377655877910818	-0.09631333194523717	0.7699448252719672	1.140581482408383	-0.425657718078715	-0.3030221973695296	-0.2561043364473826	0.5933951897068125	0.5933951897069032	-0.1737074671577221	-0.1671733543667277	-0.08083813968755611	-0.1143068745879244	-1.01745736118619	-0.35939423772065	-0.4545394719657347	2.473615530185814	-0.2139730823237709	0.5556886176087686	-0.09962856656903128	1.365611787307009	1.365611787306984	0.004895979919794928	-0.05397580130622631	-0.01724541310518617	-0.2332754818100432	-0.2144639747813035	0.00280408145067392	-0.005101873885223551	-0.1699561396068218	0.1282160301196354	0.06309189232355478	0.1967848955950738	6.682250459383983	-31.07134688951702	7.473905609422495	-9.281349226246705	-530.0425770340148	-71.52929488457949	-35.05283916606278	0.9075272993761877	0.6853940232448584	-0.2273206681970206	-1.771519493939899	0.4909442663303391	-0.1453069306135636	1.048691140340043	-0.9967000173013966	-0.9967000172957183	0.02523581892165607	0.1719011346633283	0.04429089183220813	0.5506366590766739	4.670681892150271e-08	-5.313378143399443e-07	-1.363828956056638e-07	-2.053398340134917e-07	-1.028452441182353e-07	1.785192504481696e-07	-7.82549159767532e-08
0.52	-0.4478936906494382	-0.09987269502440976	0.7653889929209611	1.165226194432973	-0.4277723838091017	-0.2974727134218034	-0.2570483020692593	0.6069995119387678	0.6069995119389354	-0.173656936455173	-0.1677037437701805	-0.08100846381740921	-0.1166116383714561	-1.008016423177267	-0.3524431265854387	-0.4565329872162728	2.454989236487819	-0.2089373190247892	0.5541373122038754	-0.08921323930568427	1.355066787034152	1.355066787034165	0.005210229157634491	-0.05209502714335396	-0.01683083464357506	-0.227661666081507	-0.2210603452447684	0.003576156011783936	-0.004928978642461687	-0.1713321961555234	0.1299765057335099	0.06449144341307129	0.2016331583557535	7.02861362328586	-31.67264439382821	7.493040894362899	-9.561018334210464	-533.4097173276626	-71.35793882608374	-34.52141153329608	0.9731672557662618	0.7040510396800347	-0.1715716640044656	-1.943579868370759	0.5217967747483754	-0.1533867668105985	1.041820348179728	-1.114371033294174	-1.114371033294169	0.04400934692414466	0.2182716594538509	0.03922316630370128	0.5779940242904525	5.495525018464968e-08	-5.199882475458959e-07	-1.803932800250867e-07	-2.100461452103766e-07	-8.394212327183861e-08	1.756719323948918e-07	-7.169334793029468e-08
0.53	-0.4579231456198712	-0.1033615734490814	0.7608160420430655	1.18967483536738	-0.4298359786344994	-0.2919409628269181	-0.2578896503348926	0.620492976707142	0.6204929767071499	-0.1736030604888031	-0.1682151844246977	-0.08117494660947161	-0.1188597458824699	-0.9977335243563743	-0.3453039425608844	-0.4579615938777299	2.4344127821726	-0.203763553978027	0.5521417755642575	-0.07912429795872269	1.343448640009537	1.343448640009546	0.005564383145255406	-0.05018716087975526	-0.01647661791403049	-0.2219486508377851	-0.2274618813267863	0.004199633696054118	-0.004786015992630573	-0.1727291630010384	0.1318252343119053	0.06577616758097068	0.2062804834139683	7.408661899997221	-32.23483019612176	7.511491612959686	-9.834526310862564	-536.6417273337984	-71.12107340074613	-33.9786298870738	1.077021295048678	0.7231019484300147	-0.1141807970879413	-2.163590235907087	0.5179953468443972	-0.2333459627164543	0.9822484072831773	-1.212151882349294	-1.212151882350037	0.03091567972144416	0.1779382974381891	0.03188273528370375	0.5697371735257609	5.707217927770552e-08	-4.996263513285103e-07	-2.004488264238401e-07	-2.078178447712306e-07	-7.058210646342254e-08	1.736826765889344e-07	-6.724127367725039e-08
